<svg width="1920" height="323" viewBox="0 0 1920 323" fill="none" xmlns="http://www.w3.org/2000/svg">
<path fill-rule="evenodd" clip-rule="evenodd" d="M0 0L52.8 29.9074C107.2 59.8148 212.8 119.63 320 155.519C427.2 191.407 532.8 203.37 640 179.444C747.2 155.519 852.8 95.7037 960 53.8333C1067.2 11.963 1172.8 -11.963 1280 17.9444C1387.2 47.8519 1492.8 131.593 1600 191.407C1707.2 251.222 1812.8 287.111 1867.2 305.056L1920 323H1867.2C1812.8 323 1707.2 323 1600 323C1492.8 323 1387.2 323 1280 323C1172.8 323 1067.2 323 960 323C852.8 323 747.2 323 640 323C532.8 323 427.2 323 320 323C212.8 323 107.2 323 52.8 323H0V0Z" fill="#E6EEEB"/>
</svg>
