<svg viewBox="0 0 1920 608" fill="none" preserveAspectRatio="none" xmlns="http://www.w3.org/2000/svg">
<path fill-rule="evenodd" clip-rule="evenodd" d="M0 429L46.4 369.417C91.2 309.833 182.4 190.667 273.6 131.083C366.4 71.5 457.6 71.5 548.8 107.25C640 143 731.2 214.5 822.4 286C913.6 357.5 1006.4 429 1097.6 381.333C1188.8 333.667 1280 166.833 1371.2 178.75C1462.4 190.667 1553.6 381.333 1646.4 381.333C1737.6 381.333 1828.8 190.667 1873.6 95.3333L1920 0V572H1873.6C1828.8 572 1737.6 572 1646.4 572C1553.6 572 1462.4 572 1371.2 572C1280 572 1188.8 572 1097.6 572C1006.4 572 913.6 572 822.4 572C731.2 572 640 572 548.8 572C457.6 572 366.4 572 273.6 572C182.4 572 91.2 572 46.4 572H0V429Z" fill="#015438"/>
<path fill-rule="evenodd" clip-rule="evenodd" d="M-55 608L27.2917 531.167C109.583 454.333 274.167 300.667 438.75 223.833C603.333 147 767.917 147 932.5 198.222C1097.08 249.444 1261.67 351.889 1426.25 351.889C1590.83 351.889 1755.42 249.444 1837.71 198.222L1920 147V608H1837.71C1755.42 608 1590.83 608 1426.25 608C1261.67 608 1097.08 608 932.5 608C767.917 608 603.333 608 438.75 608C274.167 608 109.583 608 27.2917 608H-55Z" fill="#1BAE60"/>
</svg>
