<svg width="1920" height="403" viewBox="0 0 1920 403" fill="none" xmlns="http://www.w3.org/2000/svg">
<path fill-rule="evenodd" clip-rule="evenodd" d="M0 0H46C91 0 183 0 274 67C366 134 457 269 549 288C640 307 731 211 823 134C914 57 1006 0 1097 38C1189 77 1280 211 1371 230C1463 249 1554 153 1646 144C1737 134 1829 211 1874 249L1920 288V403H1874C1829 403 1737 403 1646 403C1554 403 1463 403 1371 403C1280 403 1189 403 1097 403C1006 403 914 403 823 403C731 403 640 403 549 403C457 403 366 403 274 403C183 403 91 403 46 403H0V0Z" fill="#015438"/>
<path fill-rule="evenodd" clip-rule="evenodd" d="M0 331L46.4 319C91.2 307 182.4 283 273.6 271C366.4 259 457.6 259 548.8 283C640 307 731.2 355 822.4 349C913.6 343 1006.4 283 1097.6 247C1188.8 211 1280 199 1371.2 199C1462.4 199 1553.6 211 1646.4 205C1737.6 199 1828.8 175 1873.6 163L1920 151V403H1873.6C1828.8 403 1737.6 403 1646.4 403C1553.6 403 1462.4 403 1371.2 403C1280 403 1188.8 403 1097.6 403C1006.4 403 913.6 403 822.4 403C731.2 403 640 403 548.8 403C457.6 403 366.4 403 273.6 403C182.4 403 91.2 403 46.4 403H0V331Z" fill="#1BAE60"/>
</svg>
