<svg width="8" height="13" viewBox="0 0 8 13" fill="currentColor" xmlns="http://www.w3.org/2000/svg">
<path d="M5.91388 6.49542L0.287084 1.45676C0.0956964 1.28537 0.00306463 1.08543 0.00918913 0.856915C0.0153136 0.628405 0.114324 0.428458 0.306222 0.257074C0.49812 0.0856915 0.721406 0 0.976079 0C1.23075 0 1.45404 0.0856915 1.64593 0.257074L7.54067 5.51853C7.69378 5.65564 7.80861 5.80989 7.88517 5.98127C7.96172 6.15265 8 6.32403 8 6.49542C8 6.6668 7.96172 6.83818 7.88517 7.00957C7.80861 7.18095 7.69378 7.33519 7.54067 7.4723L1.64593 12.7509C1.45455 12.9223 1.22794 13.0052 0.966126 12.9997C0.704309 12.9943 0.477961 12.9056 0.287084 12.7338C0.0962067 12.5619 0.0005126 12.362 2.38419e-06 12.1339C-0.000508308 11.9059 0.0951858 11.7059 0.287084 11.5341L5.91388 6.49542Z" fill="currentColor"/>
</svg>
