<svg width="15" height="15" viewBox="0 0 15 15" fill="none" xmlns="http://www.w3.org/2000/svg">
<path d="M2.47673 13.125C2.05872 13.125 1.65784 12.9521 1.36226 12.6445C1.06669 12.3368 0.900635 11.9195 0.900635 11.4844V9.14062C0.900635 8.95414 0.9718 8.7753 1.09847 8.64344C1.22515 8.51158 1.39696 8.4375 1.5761 8.4375C1.75525 8.4375 1.92706 8.51158 2.05373 8.64344C2.18041 8.7753 2.25157 8.95414 2.25157 9.14062V11.4844C2.25157 11.6137 2.35244 11.7188 2.47673 11.7188H11.9333C11.993 11.7188 12.0503 11.6941 12.0925 11.6501C12.1347 11.6061 12.1584 11.5465 12.1584 11.4844V9.14062C12.1584 8.95414 12.2296 8.7753 12.3563 8.64344C12.483 8.51158 12.6548 8.4375 12.8339 8.4375C13.0131 8.4375 13.1849 8.51158 13.3115 8.64344C13.4382 8.7753 13.5094 8.95414 13.5094 9.14062V11.4844C13.5094 11.9195 13.3433 12.3368 13.0478 12.6445C12.7522 12.9521 12.3513 13.125 11.9333 13.125H2.47673Z" fill="currentColor"/>
<path d="M6.52964 7.20844V1.875C6.52964 1.68852 6.6008 1.50968 6.72748 1.37782C6.85415 1.24595 7.02596 1.17188 7.20511 1.17188C7.38425 1.17188 7.55606 1.24595 7.68273 1.37782C7.80941 1.50968 7.88058 1.68852 7.88058 1.875V7.20844L9.65481 5.3625C9.71749 5.29725 9.79191 5.24549 9.87381 5.21018C9.95571 5.17486 10.0435 5.15669 10.1321 5.15669C10.2208 5.15669 10.3086 5.17486 10.3905 5.21018C10.4724 5.24549 10.5468 5.29725 10.6095 5.3625C10.6722 5.42775 10.7219 5.50521 10.7558 5.59047C10.7897 5.67572 10.8072 5.7671 10.8072 5.85938C10.8072 5.95165 10.7897 6.04303 10.7558 6.12828C10.7219 6.21354 10.6722 6.291 10.6095 6.35625L7.68244 9.40312C7.55579 9.5348 7.38411 9.60876 7.20511 9.60876C7.02611 9.60876 6.85443 9.5348 6.72778 9.40312L3.80074 6.35625C3.73806 6.291 3.68834 6.21354 3.65441 6.12828C3.62049 6.04303 3.60303 5.95165 3.60303 5.85938C3.60303 5.7671 3.62049 5.67572 3.65441 5.59047C3.68834 5.50521 3.73806 5.42775 3.80074 5.3625C3.86343 5.29725 3.93785 5.24549 4.01975 5.21018C4.10165 5.17486 4.18943 5.15669 4.27808 5.15669C4.36672 5.15669 4.4545 5.17486 4.53641 5.21018C4.61831 5.24549 4.69272 5.29725 4.75541 5.3625L6.52964 7.20844Z" fill="currentColor"/>
</svg>
