<svg viewBox="0 0 24 24" fill="currentColor" xmlns="http://www.w3.org/2000/svg">
<path d="M10.125 22C10.125 22.4973 10.3225 22.9742 10.6742 23.3258C11.0258 23.6775 11.5027 23.875 12 23.875C12.4973 23.875 12.9742 23.6775 13.3258 23.3258C13.6775 22.9742 13.875 22.4973 13.875 22V13.875H22C22.4973 13.875 22.9742 13.6775 23.3258 13.3258C23.6775 12.9742 23.875 12.4973 23.875 12C23.875 11.5027 23.6775 11.0258 23.3258 10.6742C22.9742 10.3225 22.4973 10.125 22 10.125H13.875V2C13.875 1.50272 13.6775 1.02581 13.3258 0.674175C12.9742 0.322544 12.4973 0.125 12 0.125C11.5027 0.125 11.0258 0.322544 10.6742 0.674175C10.3225 1.02581 10.125 1.50272 10.125 2V10.125H2C1.50272 10.125 1.02581 10.3225 0.674175 10.6742C0.322544 11.0258 0.125 11.5027 0.125 12C0.125 12.4973 0.322544 12.9742 0.674175 13.3258C1.02581 13.6775 1.50272 13.875 2 13.875H10.125V22Z" fill="currentColor"/>
</svg>
